# xmcd
#
# Track frame offsets: 
#        150
#        16300
#        36162
#        54655
#        73105
#        86327
#        111972
#        130122
#        153477
#        169892
#        190120
#        211855
#        228645
#        245092
#        273185
#
# Disc length: 3808 seconds
#
# Revision: 0
# Processed by: cddbd v1.5.1PL2 Copyright (c) Steve Scherf et al.
# Submitted via: ExactAudioCopy v0.95b3
#
DISCID=cf0ede0f
DTITLE=Neville Dickie and His Rhythm Kings (featuring Al Casey) - Shou
DTITLE=t for Joy
DYEAR=1997
DGENRE=Blues
TTITLE0=Shout For Joy
TTITLE1=Tennessee Waltz
TTITLE2=How Long Blues
TTITLE3=The Sheik of Araby
TTITLE4=Boogie Woogie Blues
TTITLE5=Swanee River
TTITLE6=Chicago on My Mind
TTITLE7=I'm Gonna Sit Right Down and Write Myself a Letter
TTITLE8=Buck Jumpin'
TTITLE9=Margie
TTITLE10=Mr. Freddie Blues
TTITLE11=Pinetop's Boogie Woogie
TTITLE12=Oh, Lady Be Good
TTITLE13=You are My Sunshine
TTITLE14=St. Louis Blues
EXTD=
EXTT0=
EXTT1=
EXTT2=
EXTT3=
EXTT4=
EXTT5=
EXTT6=
EXTT7=
EXTT8=
EXTT9=
EXTT10=
EXTT11=
EXTT12=
EXTT13=
EXTT14=
PLAYORDER=
